<svg width="1280" height="640" viewBox="0 0 1280 640" fill="none" xmlns="http://www.w3.org/2000/svg">
  <defs>
    <radialGradient id="bgGlow" cx="50%" cy="50%" r="70%">
      <stop offset="0%" stop-color="#281142"/>
      <stop offset="45%" stop-color="#120B1F"/>
      <stop offset="100%" stop-color="#09060F"/>
    </radialGradient>
    <linearGradient id="purpleLine" x1="0" y1="0" x2="1280" y2="640">
      <stop offset="0%" stop-color="#4C1D95"/>
      <stop offset="45%" stop-color="#A855F7"/>
      <stop offset="75%" stop-color="#E879F9"/>
      <stop offset="100%" stop-color="#6D28D9"/>
    </linearGradient>
    <filter id="glow" x="-50%" y="-50%" width="200%" height="200%">
      <feGaussianBlur stdDeviation="10" result="blur"/>
      <feMerge>
        <feMergeNode in="blur"/>
        <feMergeNode in="SourceGraphic"/>
      </feMerge>
    </filter>
  </defs>
  <rect width="1280" height="640" rx="48" fill="url(#bgGlow)"/>
  <g opacity="0.9" filter="url(#glow)">
    <path d="M-40 126 C150 28 240 238 410 122 C596 -5 688 266 872 124 C1024 7 1128 155 1320 74" stroke="url(#purpleLine)" stroke-width="3" stroke-linecap="round"/>
    <path d="M-80 458 C120 345 260 574 430 430 C604 282 724 548 890 392 C1032 258 1150 448 1360 314" stroke="url(#purpleLine)" stroke-width="2.5" stroke-linecap="round" opacity="0.8"/>
    <path d="M80 326 H210 C230 326 236 256 254 256 C278 256 284 400 306 400 C330 400 336 206 360 206 C386 206 390 326 420 326 H532" stroke="url(#purpleLine)" stroke-width="8" stroke-linecap="round" stroke-linejoin="round"/>
  </g>
  <g transform="translate(612 172)">
    <text x="0" y="126" fill="#F8F7FF" font-family="Inter, Segoe UI, Arial, sans-serif" font-size="138" font-weight="900" letter-spacing="-8">tl;dh</text>
    <text x="8" y="182" fill="#BEB7D8" font-family="Inter, Segoe UI, Arial, sans-serif" font-size="34" font-weight="600" letter-spacing="0.5">too long; didn't hear</text>
    <rect x="8" y="224" width="420" height="2" fill="url(#purpleLine)" opacity="0.95"/>
    <text x="8" y="278" fill="#EADDFE" font-family="Inter, Segoe UI, Arial, sans-serif" font-size="26" font-weight="500">Share voice note. Get the point. Stay offline.</text>
  </g>
  <g transform="translate(166 210)">
    <rect x="0" y="0" width="282" height="220" rx="42" fill="#120B1F" stroke="#8B5CF6" stroke-width="2" opacity="0.88"/>
    <path d="M54 112 C78 50 98 174 122 112 C146 48 164 176 190 112 C210 66 222 132 238 90" stroke="url(#purpleLine)" stroke-width="10" stroke-linecap="round" fill="none" filter="url(#glow)"/>
    <path d="M62 158 H220" stroke="#BEB7D8" stroke-width="6" stroke-linecap="round" opacity="0.55"/>
    <path d="M62 180 H178" stroke="#BEB7D8" stroke-width="6" stroke-linecap="round" opacity="0.35"/>
  </g>
</svg>